<svg xmlns="http://www.w3.org/2000/svg" xmlns:xlink="http://www.w3.org/1999/xlink" width="1198" zoomAndPan="magnify" viewBox="0 0 898.5 275.25" height="367" preserveAspectRatio="xMidYMid meet" version="1.0"><defs><g/><clipPath id="461b9d0d16"><path d="M 108 32.824219 L 139 32.824219 L 139 63 L 108 63 Z M 108 32.824219 " clip-rule="nonzero"/></clipPath></defs><g clip-path="url(#461b9d0d16)"><path fill="#000000" d="M 123.640625 32.855469 C 124.625 32.855469 125.601562 32.953125 126.570312 33.144531 C 127.535156 33.335938 128.476562 33.621094 129.386719 34 C 130.296875 34.375 131.164062 34.839844 131.984375 35.386719 C 132.800781 35.9375 133.5625 36.558594 134.257812 37.257812 C 134.957031 37.953125 135.578125 38.710938 136.125 39.53125 C 136.671875 40.351562 137.136719 41.21875 137.511719 42.128906 C 137.890625 43.042969 138.175781 43.980469 138.367188 44.949219 C 138.558594 45.917969 138.65625 46.894531 138.65625 47.882812 C 138.65625 48.867188 138.558594 49.84375 138.367188 50.8125 C 138.175781 51.78125 137.890625 52.71875 137.511719 53.632812 C 137.136719 54.542969 136.671875 55.410156 136.125 56.230469 C 135.578125 57.050781 134.957031 57.808594 134.257812 58.503906 C 133.5625 59.203125 132.800781 59.828125 131.984375 60.375 C 131.164062 60.921875 130.296875 61.386719 129.386719 61.761719 C 128.476562 62.140625 127.535156 62.425781 126.570312 62.617188 C 125.601562 62.808594 124.625 62.90625 123.640625 62.90625 C 122.65625 62.90625 121.679688 62.808594 120.710938 62.617188 C 119.746094 62.425781 118.804688 62.140625 117.894531 61.761719 C 116.984375 61.386719 116.117188 60.921875 115.300781 60.375 C 114.480469 59.828125 113.722656 59.203125 113.023438 58.503906 C 112.328125 57.808594 111.703125 57.050781 111.15625 56.230469 C 110.609375 55.410156 110.144531 54.542969 109.769531 53.632812 C 109.390625 52.71875 109.105469 51.78125 108.914062 50.8125 C 108.722656 49.84375 108.625 48.867188 108.625 47.882812 C 108.625 46.894531 108.722656 45.917969 108.914062 44.949219 C 109.105469 43.980469 109.390625 43.042969 109.769531 42.128906 C 110.144531 41.21875 110.609375 40.351562 111.15625 39.53125 C 111.703125 38.710938 112.328125 37.953125 113.023438 37.257812 C 113.722656 36.558594 114.480469 35.9375 115.300781 35.386719 C 116.117188 34.839844 116.984375 34.375 117.894531 34 C 118.804688 33.621094 119.746094 33.335938 120.710938 33.144531 C 121.679688 32.953125 122.65625 32.855469 123.640625 32.855469 Z M 123.640625 32.855469 " fill-opacity="1" fill-rule="nonzero"/></g><path fill="#000000" d="M 148.417969 93.925781 C 154.285156 99.796875 163.789062 99.796875 169.65625 93.925781 C 175.523438 88.054688 175.523438 78.542969 169.65625 72.671875 C 163.789062 66.800781 154.285156 66.800781 148.417969 72.671875 C 142.550781 78.542969 142.550781 88.054688 148.417969 93.925781 Z M 148.417969 93.925781 " fill-opacity="1" fill-rule="nonzero"/><path fill="#000000" d="M 194.433594 103.695312 C 195.417969 103.695312 196.394531 103.789062 197.363281 103.984375 C 198.328125 104.175781 199.269531 104.460938 200.179688 104.839844 C 201.089844 105.214844 201.957031 105.679688 202.773438 106.226562 C 203.59375 106.773438 204.351562 107.398438 205.050781 108.09375 C 205.746094 108.792969 206.371094 109.550781 206.917969 110.371094 C 207.464844 111.191406 207.929688 112.058594 208.304688 112.96875 C 208.683594 113.882812 208.96875 114.820312 209.160156 115.789062 C 209.351562 116.757812 209.449219 117.734375 209.449219 118.71875 C 209.449219 119.707031 209.351562 120.683594 209.160156 121.652344 C 208.96875 122.621094 208.683594 123.558594 208.304688 124.46875 C 207.929688 125.382812 207.464844 126.246094 206.917969 127.066406 C 206.371094 127.886719 205.746094 128.648438 205.050781 129.34375 C 204.351562 130.042969 203.59375 130.664062 202.773438 131.214844 C 201.957031 131.761719 201.089844 132.222656 200.179688 132.601562 C 199.269531 132.980469 198.328125 133.265625 197.363281 133.457031 C 196.394531 133.648438 195.417969 133.746094 194.433594 133.746094 C 193.449219 133.746094 192.472656 133.648438 191.503906 133.457031 C 190.535156 133.265625 189.597656 132.980469 188.6875 132.601562 C 187.777344 132.222656 186.910156 131.761719 186.089844 131.214844 C 185.273438 130.664062 184.511719 130.042969 183.816406 129.34375 C 183.117188 128.648438 182.496094 127.886719 181.949219 127.066406 C 181.402344 126.246094 180.9375 125.382812 180.5625 124.46875 C 180.183594 123.558594 179.898438 122.621094 179.707031 121.652344 C 179.515625 120.683594 179.417969 119.707031 179.417969 118.71875 C 179.417969 117.734375 179.515625 116.757812 179.707031 115.789062 C 179.898438 114.820312 180.183594 113.882812 180.5625 112.96875 C 180.9375 112.058594 181.402344 111.191406 181.949219 110.371094 C 182.496094 109.550781 183.117188 108.792969 183.816406 108.09375 C 184.511719 107.398438 185.273438 106.773438 186.089844 106.226562 C 186.910156 105.679688 187.777344 105.214844 188.6875 104.839844 C 189.597656 104.460938 190.535156 104.175781 191.503906 103.984375 C 192.472656 103.789062 193.449219 103.695312 194.433594 103.695312 Z M 194.433594 103.695312 " fill-opacity="1" fill-rule="nonzero"/><path fill="#000000" d="M 219.207031 164.765625 C 225.074219 170.636719 234.578125 170.636719 240.445312 164.765625 C 246.3125 158.894531 246.3125 149.382812 240.445312 143.511719 C 234.578125 137.640625 225.074219 137.640625 219.207031 143.511719 C 213.339844 149.382812 213.339844 158.894531 219.207031 164.765625 Z M 219.207031 164.765625 " fill-opacity="1" fill-rule="nonzero"/><path fill="#000000" d="M 77.628906 93.925781 C 83.496094 99.796875 93 99.796875 98.867188 93.925781 C 104.734375 88.054688 104.734375 78.542969 98.867188 72.671875 C 93 66.800781 83.496094 66.800781 77.628906 72.671875 C 71.761719 78.542969 71.761719 88.054688 77.628906 93.925781 Z M 77.628906 93.925781 " fill-opacity="1" fill-rule="nonzero"/><path fill="#000000" d="M 123.640625 103.695312 C 124.625 103.695312 125.601562 103.789062 126.570312 103.984375 C 127.535156 104.175781 128.476562 104.460938 129.386719 104.839844 C 130.296875 105.214844 131.164062 105.679688 131.984375 106.226562 C 132.800781 106.773438 133.5625 107.398438 134.257812 108.09375 C 134.957031 108.792969 135.578125 109.550781 136.125 110.371094 C 136.671875 111.191406 137.136719 112.058594 137.511719 112.96875 C 137.890625 113.882812 138.175781 114.820312 138.367188 115.789062 C 138.558594 116.757812 138.65625 117.734375 138.65625 118.71875 C 138.65625 119.707031 138.558594 120.683594 138.367188 121.652344 C 138.175781 122.621094 137.890625 123.558594 137.511719 124.46875 C 137.136719 125.382812 136.671875 126.246094 136.125 127.066406 C 135.578125 127.886719 134.957031 128.648438 134.257812 129.34375 C 133.5625 130.042969 132.800781 130.664062 131.984375 131.214844 C 131.164062 131.761719 130.296875 132.222656 129.386719 132.601562 C 128.476562 132.980469 127.535156 133.265625 126.570312 133.457031 C 125.601562 133.648438 124.625 133.746094 123.640625 133.746094 C 122.65625 133.746094 121.679688 133.648438 120.710938 133.457031 C 119.746094 133.265625 118.804688 132.980469 117.894531 132.601562 C 116.984375 132.222656 116.117188 131.761719 115.300781 131.214844 C 114.480469 130.664062 113.722656 130.042969 113.023438 129.34375 C 112.328125 128.648438 111.703125 127.886719 111.15625 127.066406 C 110.609375 126.246094 110.144531 125.382812 109.769531 124.46875 C 109.390625 123.558594 109.105469 122.621094 108.914062 121.652344 C 108.722656 120.683594 108.625 119.707031 108.625 118.71875 C 108.625 117.734375 108.722656 116.757812 108.914062 115.789062 C 109.105469 114.820312 109.390625 113.882812 109.769531 112.96875 C 110.144531 112.058594 110.609375 111.191406 111.15625 110.371094 C 111.703125 109.550781 112.328125 108.792969 113.023438 108.09375 C 113.722656 107.398438 114.480469 106.773438 115.300781 106.226562 C 116.117188 105.679688 116.984375 105.214844 117.894531 104.839844 C 118.804688 104.460938 119.746094 104.175781 120.710938 103.984375 C 121.679688 103.789062 122.65625 103.695312 123.640625 103.695312 Z M 123.640625 103.695312 " fill-opacity="1" fill-rule="nonzero"/><path fill="#000000" d="M 159.035156 139.113281 C 160.023438 139.113281 161 139.207031 161.964844 139.402344 C 162.933594 139.59375 163.871094 139.878906 164.78125 140.253906 C 165.695312 140.632812 166.558594 141.097656 167.378906 141.644531 C 168.199219 142.191406 168.957031 142.816406 169.652344 143.511719 C 170.351562 144.210938 170.972656 144.96875 171.519531 145.789062 C 172.070312 146.609375 172.53125 147.476562 172.910156 148.386719 C 173.285156 149.300781 173.570312 150.238281 173.761719 151.207031 C 173.957031 152.175781 174.050781 153.152344 174.050781 154.136719 C 174.050781 155.125 173.957031 156.101562 173.761719 157.070312 C 173.570312 158.035156 173.285156 158.976562 172.910156 159.886719 C 172.53125 160.800781 172.070312 161.664062 171.519531 162.484375 C 170.972656 163.304688 170.351562 164.066406 169.652344 164.761719 C 168.957031 165.460938 168.199219 166.082031 167.378906 166.632812 C 166.558594 167.179688 165.695312 167.640625 164.78125 168.019531 C 163.871094 168.398438 162.933594 168.683594 161.964844 168.875 C 161 169.066406 160.023438 169.164062 159.035156 169.164062 C 158.050781 169.164062 157.074219 169.066406 156.109375 168.875 C 155.140625 168.683594 154.203125 168.398438 153.292969 168.019531 C 152.378906 167.640625 151.515625 167.179688 150.695312 166.632812 C 149.875 166.082031 149.117188 165.460938 148.417969 164.761719 C 147.722656 164.066406 147.101562 163.304688 146.550781 162.484375 C 146.003906 161.664062 145.542969 160.800781 145.164062 159.886719 C 144.789062 158.976562 144.503906 158.035156 144.3125 157.070312 C 144.117188 156.101562 144.023438 155.125 144.023438 154.136719 C 144.023438 153.152344 144.117188 152.175781 144.3125 151.207031 C 144.503906 150.238281 144.789062 149.300781 145.164062 148.386719 C 145.542969 147.476562 146.003906 146.609375 146.550781 145.789062 C 147.101562 144.96875 147.722656 144.210938 148.417969 143.511719 C 149.117188 142.816406 149.875 142.191406 150.695312 141.644531 C 151.515625 141.097656 152.378906 140.632812 153.292969 140.253906 C 154.203125 139.878906 155.140625 139.59375 156.109375 139.402344 C 157.074219 139.207031 158.050781 139.113281 159.035156 139.113281 Z M 159.035156 139.113281 " fill-opacity="1" fill-rule="nonzero"/><path fill="#000000" d="M 194.433594 174.535156 C 195.417969 174.535156 196.394531 174.628906 197.363281 174.824219 C 198.328125 175.015625 199.269531 175.300781 200.179688 175.675781 C 201.089844 176.054688 201.957031 176.519531 202.773438 177.066406 C 203.59375 177.613281 204.351562 178.238281 205.050781 178.933594 C 205.746094 179.632812 206.371094 180.390625 206.917969 181.210938 C 207.464844 182.03125 207.929688 182.898438 208.304688 183.808594 C 208.683594 184.722656 208.96875 185.660156 209.160156 186.628906 C 209.351562 187.597656 209.449219 188.574219 209.449219 189.558594 C 209.449219 190.546875 209.351562 191.523438 209.160156 192.492188 C 208.96875 193.457031 208.683594 194.398438 208.304688 195.308594 C 207.929688 196.222656 207.464844 197.085938 206.917969 197.90625 C 206.371094 198.726562 205.746094 199.488281 205.050781 200.183594 C 204.351562 200.882812 203.59375 201.503906 202.773438 202.054688 C 201.957031 202.601562 201.089844 203.0625 200.179688 203.441406 C 199.269531 203.820312 198.328125 204.105469 197.363281 204.296875 C 196.394531 204.488281 195.417969 204.585938 194.433594 204.585938 C 193.449219 204.585938 192.472656 204.488281 191.503906 204.296875 C 190.535156 204.105469 189.597656 203.820312 188.6875 203.441406 C 187.777344 203.0625 186.910156 202.601562 186.089844 202.054688 C 185.273438 201.503906 184.511719 200.882812 183.816406 200.183594 C 183.117188 199.488281 182.496094 198.726562 181.949219 197.90625 C 181.402344 197.085938 180.9375 196.222656 180.5625 195.308594 C 180.183594 194.398438 179.898438 193.457031 179.707031 192.492188 C 179.515625 191.523438 179.417969 190.546875 179.417969 189.558594 C 179.417969 188.574219 179.515625 187.597656 179.707031 186.628906 C 179.898438 185.660156 180.183594 184.722656 180.5625 183.808594 C 180.9375 182.898438 181.402344 182.03125 181.949219 181.210938 C 182.496094 180.390625 183.117188 179.632812 183.816406 178.933594 C 184.511719 178.238281 185.273438 177.613281 186.089844 177.066406 C 186.910156 176.519531 187.777344 176.054688 188.6875 175.675781 C 189.597656 175.300781 190.535156 175.015625 191.503906 174.824219 C 192.472656 174.628906 193.449219 174.535156 194.433594 174.535156 Z M 194.433594 174.535156 " fill-opacity="1" fill-rule="nonzero"/><path fill="#000000" d="M 219.207031 235.605469 C 225.074219 241.472656 234.578125 241.472656 240.445312 235.605469 C 246.3125 229.734375 246.3125 220.222656 240.445312 214.351562 C 234.578125 208.480469 225.074219 208.480469 219.207031 214.351562 C 213.339844 220.222656 213.339844 229.734375 219.207031 235.605469 Z M 219.207031 235.605469 " fill-opacity="1" fill-rule="nonzero"/><path fill="#000000" d="M 52.851562 103.695312 C 53.839844 103.695312 54.816406 103.789062 55.78125 103.984375 C 56.75 104.175781 57.6875 104.460938 58.597656 104.839844 C 59.507812 105.214844 60.375 105.679688 61.195312 106.226562 C 62.015625 106.773438 62.773438 107.398438 63.46875 108.09375 C 64.167969 108.792969 64.789062 109.550781 65.335938 110.371094 C 65.886719 111.191406 66.347656 112.058594 66.726562 112.96875 C 67.101562 113.882812 67.386719 114.820312 67.578125 115.789062 C 67.773438 116.757812 67.867188 117.734375 67.867188 118.71875 C 67.867188 119.707031 67.773438 120.683594 67.578125 121.652344 C 67.386719 122.621094 67.101562 123.558594 66.726562 124.46875 C 66.347656 125.382812 65.886719 126.246094 65.335938 127.066406 C 64.789062 127.886719 64.167969 128.648438 63.46875 129.34375 C 62.773438 130.042969 62.015625 130.664062 61.195312 131.214844 C 60.375 131.761719 59.507812 132.222656 58.597656 132.601562 C 57.6875 132.980469 56.75 133.265625 55.78125 133.457031 C 54.816406 133.648438 53.839844 133.746094 52.851562 133.746094 C 51.867188 133.746094 50.890625 133.648438 49.921875 133.457031 C 48.957031 133.265625 48.019531 132.980469 47.105469 132.601562 C 46.195312 132.222656 45.332031 131.761719 44.511719 131.214844 C 43.691406 130.664062 42.933594 130.042969 42.234375 129.34375 C 41.539062 128.648438 40.917969 127.886719 40.367188 127.066406 C 39.820312 126.246094 39.359375 125.382812 38.980469 124.46875 C 38.605469 123.558594 38.320312 122.621094 38.125 121.652344 C 37.933594 120.683594 37.835938 119.707031 37.835938 118.71875 C 37.835938 117.734375 37.933594 116.757812 38.125 115.789062 C 38.320312 114.820312 38.605469 113.882812 38.980469 112.96875 C 39.359375 112.058594 39.820312 111.191406 40.367188 110.371094 C 40.917969 109.550781 41.539062 108.792969 42.234375 108.09375 C 42.933594 107.398438 43.691406 106.773438 44.511719 106.226562 C 45.332031 105.679688 46.195312 105.214844 47.105469 104.839844 C 48.019531 104.460938 48.957031 104.175781 49.921875 103.984375 C 50.890625 103.789062 51.867188 103.695312 52.851562 103.695312 Z M 52.851562 103.695312 " fill-opacity="1" fill-rule="nonzero"/><path fill="#000000" d="M 77.628906 164.765625 C 83.496094 170.636719 93 170.636719 98.867188 164.765625 C 104.734375 158.894531 104.734375 149.382812 98.867188 143.511719 C 93 137.640625 83.496094 137.640625 77.628906 143.511719 C 71.761719 149.382812 71.761719 158.894531 77.628906 164.765625 Z M 77.628906 164.765625 " fill-opacity="1" fill-rule="nonzero"/><path fill="#000000" d="M 17.457031 139.113281 C 18.441406 139.113281 19.417969 139.207031 20.386719 139.402344 C 21.351562 139.59375 22.292969 139.878906 23.203125 140.253906 C 24.113281 140.632812 24.980469 141.097656 25.796875 141.644531 C 26.617188 142.191406 27.375 142.816406 28.074219 143.511719 C 28.769531 144.210938 29.394531 144.96875 29.941406 145.789062 C 30.488281 146.609375 30.953125 147.476562 31.328125 148.386719 C 31.707031 149.300781 31.992188 150.238281 32.183594 151.207031 C 32.375 152.175781 32.472656 153.152344 32.472656 154.136719 C 32.472656 155.125 32.375 156.101562 32.183594 157.070312 C 31.992188 158.035156 31.707031 158.976562 31.328125 159.886719 C 30.953125 160.800781 30.488281 161.664062 29.941406 162.484375 C 29.394531 163.304688 28.769531 164.066406 28.074219 164.761719 C 27.375 165.460938 26.617188 166.082031 25.796875 166.632812 C 24.980469 167.179688 24.113281 167.640625 23.203125 168.019531 C 22.292969 168.398438 21.351562 168.683594 20.386719 168.875 C 19.417969 169.066406 18.441406 169.164062 17.457031 169.164062 C 16.472656 169.164062 15.496094 169.066406 14.527344 168.875 C 13.558594 168.683594 12.621094 168.398438 11.710938 168.019531 C 10.800781 167.640625 9.933594 167.179688 9.113281 166.632812 C 8.296875 166.082031 7.535156 165.460938 6.839844 164.761719 C 6.140625 164.066406 5.519531 163.304688 4.972656 162.484375 C 4.425781 161.664062 3.960938 160.800781 3.585938 159.886719 C 3.207031 158.976562 2.921875 158.035156 2.730469 157.070312 C 2.539062 156.101562 2.441406 155.125 2.441406 154.136719 C 2.441406 153.152344 2.539062 152.175781 2.730469 151.207031 C 2.921875 150.238281 3.207031 149.300781 3.585938 148.386719 C 3.960938 147.476562 4.425781 146.609375 4.972656 145.789062 C 5.519531 144.96875 6.140625 144.210938 6.839844 143.511719 C 7.535156 142.816406 8.296875 142.191406 9.113281 141.644531 C 9.933594 141.097656 10.800781 140.632812 11.710938 140.253906 C 12.621094 139.878906 13.558594 139.59375 14.527344 139.402344 C 15.496094 139.207031 16.472656 139.113281 17.457031 139.113281 Z M 17.457031 139.113281 " fill-opacity="1" fill-rule="nonzero"/><path fill="#000000" d="M 52.851562 174.535156 C 53.839844 174.535156 54.816406 174.628906 55.78125 174.824219 C 56.75 175.015625 57.6875 175.300781 58.597656 175.675781 C 59.507812 176.054688 60.375 176.519531 61.195312 177.066406 C 62.015625 177.613281 62.773438 178.238281 63.46875 178.933594 C 64.167969 179.632812 64.789062 180.390625 65.335938 181.210938 C 65.886719 182.03125 66.347656 182.898438 66.726562 183.808594 C 67.101562 184.722656 67.386719 185.660156 67.578125 186.628906 C 67.773438 187.597656 67.867188 188.574219 67.867188 189.558594 C 67.867188 190.546875 67.773438 191.523438 67.578125 192.492188 C 67.386719 193.457031 67.101562 194.398438 66.726562 195.308594 C 66.347656 196.222656 65.886719 197.085938 65.335938 197.90625 C 64.789062 198.726562 64.167969 199.488281 63.46875 200.183594 C 62.773438 200.882812 62.015625 201.503906 61.195312 202.054688 C 60.375 202.601562 59.507812 203.0625 58.597656 203.441406 C 57.6875 203.820312 56.75 204.105469 55.78125 204.296875 C 54.816406 204.488281 53.839844 204.585938 52.851562 204.585938 C 51.867188 204.585938 50.890625 204.488281 49.921875 204.296875 C 48.957031 204.105469 48.019531 203.820312 47.105469 203.441406 C 46.195312 203.0625 45.332031 202.601562 44.511719 202.054688 C 43.691406 201.503906 42.933594 200.882812 42.234375 200.183594 C 41.539062 199.488281 40.917969 198.726562 40.367188 197.90625 C 39.820312 197.085938 39.359375 196.222656 38.980469 195.308594 C 38.605469 194.398438 38.320312 193.457031 38.125 192.492188 C 37.933594 191.523438 37.835938 190.546875 37.835938 189.558594 C 37.835938 188.574219 37.933594 187.597656 38.125 186.628906 C 38.320312 185.660156 38.605469 184.722656 38.980469 183.808594 C 39.359375 182.898438 39.820312 182.03125 40.367188 181.210938 C 40.917969 180.390625 41.539062 179.632812 42.234375 178.933594 C 42.933594 178.238281 43.691406 177.613281 44.511719 177.066406 C 45.332031 176.519531 46.195312 176.054688 47.105469 175.675781 C 48.019531 175.300781 48.957031 175.015625 49.921875 174.824219 C 50.890625 174.628906 51.867188 174.535156 52.851562 174.535156 Z M 52.851562 174.535156 " fill-opacity="1" fill-rule="nonzero"/><path fill="#000000" d="M 6.839844 235.605469 C 12.707031 241.472656 22.214844 241.472656 28.082031 235.605469 C 33.945312 229.734375 33.945312 220.222656 28.082031 214.351562 C 22.214844 208.480469 12.707031 208.480469 6.839844 214.351562 C 0.976562 220.222656 0.976562 229.738281 6.839844 235.605469 Z M 6.839844 235.605469 " fill-opacity="1" fill-rule="nonzero"/><g fill="#000000" fill-opacity="1"><g transform="translate(315.985888, 193.407246)"><g><path d="M 99.578125 0 L 73.8125 0 L 45.765625 -45.109375 L 36.171875 -38.21875 L 36.171875 0 L 13.46875 0 L 13.46875 -107.046875 L 36.171875 -107.046875 L 36.171875 -58.0625 C 37.679688 -60.164062 39.164062 -62.265625 40.625 -64.359375 C 42.09375 -66.460938 43.585938 -68.5625 45.109375 -70.65625 L 74.09375 -107.046875 L 99.28125 -107.046875 L 61.9375 -59.671875 Z M 99.578125 0 "/></g></g></g><g fill="#000000" fill-opacity="1"><g transform="translate(415.561165, 193.407246)"><g><path d="M 45.25 -83.546875 C 56.226562 -83.546875 64.644531 -81.148438 70.5 -76.359375 C 76.363281 -71.578125 79.296875 -64.304688 79.296875 -54.546875 L 79.296875 0 L 63.703125 0 L 59.375 -11.125 L 58.796875 -11.125 C 56.453125 -8.195312 54.054688 -5.804688 51.609375 -3.953125 C 49.171875 -2.097656 46.363281 -0.734375 43.1875 0.140625 C 40.019531 1.023438 36.164062 1.46875 31.625 1.46875 C 26.789062 1.46875 22.457031 0.539062 18.625 -1.3125 C 14.800781 -3.164062 11.789062 -6.007812 9.59375 -9.84375 C 7.394531 -13.675781 6.296875 -18.546875 6.296875 -24.453125 C 6.296875 -33.140625 9.347656 -39.546875 15.453125 -43.671875 C 21.554688 -47.796875 30.707031 -50.078125 42.90625 -50.515625 L 57.109375 -50.953125 L 57.109375 -54.546875 C 57.109375 -58.835938 55.984375 -61.984375 53.734375 -63.984375 C 51.492188 -65.992188 48.375 -67 44.375 -67 C 40.414062 -67 36.53125 -66.4375 32.71875 -65.3125 C 28.914062 -64.1875 25.113281 -62.769531 21.3125 -61.0625 L 13.90625 -76.140625 C 18.25 -78.441406 23.117188 -80.25 28.515625 -81.5625 C 33.910156 -82.882812 39.488281 -83.546875 45.25 -83.546875 Z M 57.109375 -37.921875 L 48.46875 -37.640625 C 41.25 -37.441406 36.234375 -36.144531 33.421875 -33.75 C 30.617188 -31.363281 29.21875 -28.21875 29.21875 -24.3125 C 29.21875 -20.894531 30.21875 -18.460938 32.21875 -17.015625 C 34.21875 -15.578125 36.828125 -14.859375 40.046875 -14.859375 C 44.828125 -14.859375 48.863281 -16.273438 52.15625 -19.109375 C 55.457031 -21.941406 57.109375 -25.96875 57.109375 -31.1875 Z M 57.109375 -37.921875 "/></g></g></g><g fill="#000000" fill-opacity="1"><g transform="translate(506.130758, 193.407246)"><g><path d="M 57.25 -83.390625 C 66.476562 -83.390625 73.9375 -79.800781 79.625 -72.625 C 85.3125 -65.457031 88.15625 -54.941406 88.15625 -41.078125 C 88.15625 -31.804688 86.8125 -24.007812 84.125 -17.6875 C 81.445312 -11.363281 77.738281 -6.585938 73 -3.359375 C 68.257812 -0.140625 62.816406 1.46875 56.671875 1.46875 C 52.710938 1.46875 49.316406 0.96875 46.484375 -0.03125 C 43.660156 -1.03125 41.25 -2.320312 39.25 -3.90625 C 37.25 -5.5 35.515625 -7.195312 34.046875 -9 L 32.875 -9 C 33.269531 -7.050781 33.5625 -5.050781 33.75 -3 C 33.945312 -0.945312 34.046875 1.050781 34.046875 3 L 34.046875 36.03125 L 11.71875 36.03125 L 11.71875 -81.859375 L 29.875 -81.859375 L 33.015625 -71.25 L 34.046875 -71.25 C 35.515625 -73.4375 37.296875 -75.457031 39.390625 -77.3125 C 41.492188 -79.175781 44.019531 -80.65625 46.96875 -81.75 C 49.925781 -82.84375 53.351562 -83.390625 57.25 -83.390625 Z M 50.078125 -65.53125 C 46.171875 -65.53125 43.070312 -64.722656 40.78125 -63.109375 C 38.488281 -61.503906 36.816406 -59.085938 35.765625 -55.859375 C 34.710938 -52.640625 34.140625 -48.566406 34.046875 -43.640625 L 34.046875 -41.21875 C 34.046875 -35.945312 34.546875 -31.476562 35.546875 -27.8125 C 36.546875 -24.15625 38.226562 -21.375 40.59375 -19.46875 C 42.96875 -17.570312 46.226562 -16.625 50.375 -16.625 C 53.789062 -16.625 56.597656 -17.570312 58.796875 -19.46875 C 60.992188 -21.375 62.640625 -24.171875 63.734375 -27.859375 C 64.835938 -31.546875 65.390625 -36.050781 65.390625 -41.375 C 65.390625 -49.375 64.144531 -55.398438 61.65625 -59.453125 C 59.164062 -63.503906 55.304688 -65.53125 50.078125 -65.53125 Z M 50.078125 -65.53125 "/></g></g></g><g fill="#000000" fill-opacity="1"><g transform="translate(601.020139, 193.407246)"><g><path d="M 34.046875 -81.859375 L 34.046875 0 L 11.71875 0 L 11.71875 -81.859375 Z M 22.921875 -113.921875 C 26.234375 -113.921875 29.085938 -113.148438 31.484375 -111.609375 C 33.878906 -110.078125 35.078125 -107.210938 35.078125 -103.015625 C 35.078125 -98.867188 33.878906 -96 31.484375 -94.40625 C 29.085938 -92.820312 26.234375 -92.03125 22.921875 -92.03125 C 19.546875 -92.03125 16.675781 -92.820312 14.3125 -94.40625 C 11.945312 -96 10.765625 -98.867188 10.765625 -103.015625 C 10.765625 -107.210938 11.945312 -110.078125 14.3125 -111.609375 C 16.675781 -113.148438 19.546875 -113.921875 22.921875 -113.921875 Z M 22.921875 -113.921875 "/></g></g></g><g fill="#000000" fill-opacity="1"><g transform="translate(646.780858, 193.407246)"><g><path d="M 46.203125 -16.328125 C 48.640625 -16.328125 51.015625 -16.570312 53.328125 -17.0625 C 55.648438 -17.550781 57.960938 -18.160156 60.265625 -18.890625 L 60.265625 -2.265625 C 57.867188 -1.191406 54.898438 -0.300781 51.359375 0.40625 C 47.828125 1.113281 43.960938 1.46875 39.765625 1.46875 C 34.878906 1.46875 30.492188 0.675781 26.609375 -0.90625 C 22.734375 -2.5 19.679688 -5.257812 17.453125 -9.1875 C 15.234375 -13.113281 14.125 -18.59375 14.125 -25.625 L 14.125 -65.09375 L 3.4375 -65.09375 L 3.4375 -74.53125 L 15.734375 -82 L 22.1875 -99.28125 L 36.46875 -99.28125 L 36.46875 -81.859375 L 59.375 -81.859375 L 59.375 -65.09375 L 36.46875 -65.09375 L 36.46875 -25.625 C 36.46875 -22.5 37.359375 -20.164062 39.140625 -18.625 C 40.921875 -17.09375 43.273438 -16.328125 46.203125 -16.328125 Z M 46.203125 -16.328125 "/></g></g></g><g fill="#000000" fill-opacity="1"><g transform="translate(711.870894, 193.407246)"><g><path d="M 45.25 -83.546875 C 56.226562 -83.546875 64.644531 -81.148438 70.5 -76.359375 C 76.363281 -71.578125 79.296875 -64.304688 79.296875 -54.546875 L 79.296875 0 L 63.703125 0 L 59.375 -11.125 L 58.796875 -11.125 C 56.453125 -8.195312 54.054688 -5.804688 51.609375 -3.953125 C 49.171875 -2.097656 46.363281 -0.734375 43.1875 0.140625 C 40.019531 1.023438 36.164062 1.46875 31.625 1.46875 C 26.789062 1.46875 22.457031 0.539062 18.625 -1.3125 C 14.800781 -3.164062 11.789062 -6.007812 9.59375 -9.84375 C 7.394531 -13.675781 6.296875 -18.546875 6.296875 -24.453125 C 6.296875 -33.140625 9.347656 -39.546875 15.453125 -43.671875 C 21.554688 -47.796875 30.707031 -50.078125 42.90625 -50.515625 L 57.109375 -50.953125 L 57.109375 -54.546875 C 57.109375 -58.835938 55.984375 -61.984375 53.734375 -63.984375 C 51.492188 -65.992188 48.375 -67 44.375 -67 C 40.414062 -67 36.53125 -66.4375 32.71875 -65.3125 C 28.914062 -64.1875 25.113281 -62.769531 21.3125 -61.0625 L 13.90625 -76.140625 C 18.25 -78.441406 23.117188 -80.25 28.515625 -81.5625 C 33.910156 -82.882812 39.488281 -83.546875 45.25 -83.546875 Z M 57.109375 -37.921875 L 48.46875 -37.640625 C 41.25 -37.441406 36.234375 -36.144531 33.421875 -33.75 C 30.617188 -31.363281 29.21875 -28.21875 29.21875 -24.3125 C 29.21875 -20.894531 30.21875 -18.460938 32.21875 -17.015625 C 34.21875 -15.578125 36.828125 -14.859375 40.046875 -14.859375 C 44.828125 -14.859375 48.863281 -16.273438 52.15625 -19.109375 C 55.457031 -21.941406 57.109375 -25.96875 57.109375 -31.1875 Z M 57.109375 -37.921875 "/></g></g></g><g fill="#000000" fill-opacity="1"><g transform="translate(802.440486, 193.407246)"><g><path d="M 34.046875 0 L 11.71875 0 L 11.71875 -113.921875 L 34.046875 -113.921875 Z M 34.046875 0 "/></g></g></g></svg>