<?xml version="1.0" encoding="UTF-8"?>
<!DOCTYPE svg PUBLIC "-//W3C//DTD SVG 1.1//EN" "http://www.w3.org/Graphics/SVG/1.1/DTD/svg11.dtd">
<!-- Creator: CorelDRAW 2021 (64-Bit) -->
<svg xmlns="http://www.w3.org/2000/svg" xml:space="preserve" width="8.25828in" height="4.20345in" version="1.1" style="shape-rendering:geometricPrecision; text-rendering:geometricPrecision; image-rendering:optimizeQuality; fill-rule:evenodd; clip-rule:evenodd"
viewBox="0 0 8012.27 4078.24"
 xmlns:xlink="http://www.w3.org/1999/xlink"
 xmlns:xodm="http://www.corel.com/coreldraw/odm/2003">
 <defs>
  <style type="text/css">
   <![CDATA[
    .fil0 {fill:none;fill-rule:nonzero}
    .fil3 {fill:#FEBF2C;fill-rule:nonzero}
    .fil5 {fill:#FEBF2C;fill-rule:nonzero}
    .fil2 {fill:#36ACE2;fill-rule:nonzero}
    .fil4 {fill:#36ACE2;fill-rule:nonzero}
    .fil1 {fill:#2792BD;fill-rule:nonzero}
   ]]>
  </style>
 </defs>
 <g id="Layer_x0020_1">
  <metadata id="CorelCorpID_0Corel-Layer"/>
  <g id="_2351845674720">
   <polygon class="fil0" points="-0,4078.24 8012.27,4078.24 8012.27,0 -0,0 "/>
   <g>
    <g>
     <path class="fil1" d="M4441.79 1891.73l-212.24 -217.05 212.24 -217.05c-0.34,-0.17 -0.69,-0.31 -1.02,-0.47l268.55 -268.55c-8.72,-11.03 -16.79,-21.01 -26.18,-31.67l-70.7 -70.7c-10.33,-9.09 -20.86,-17.83 -31.54,-26.3 0,0 -455.93,460 -457.73,463.1 -38.26,39.12 -61.92,92.58 -61.92,151.64 0,59.06 23.66,112.51 61.92,151.63 1.8,3.11 457.73,463.11 457.73,463.11 10.68,-8.47 21.21,-17.21 31.54,-26.31l70.7 -70.71c9.39,-10.65 17.46,-20.63 26.18,-31.66l-268.55 -268.55c0.34,-0.17 0.69,-0.31 1.02,-0.47z"/>
     <path class="fil2" d="M3775.95 1313.36c-8.8,7.6 -17.41,15.47 -25.7,23.75 -35.29,35.3 -64.35,75.25 -86.79,118.43l1.62 1.62c-0.34,0.17 -0.69,0.31 -1.03,0.47l212.24 217.05 -212.24 217.05c0.34,0.17 0.69,0.31 1.03,0.47l-1.62 1.62c22.44,43.17 51.49,83.12 86.79,118.43 8.28,8.28 16.89,16.15 25.7,23.75 106.15,-107.27 205.91,-208.24 206.75,-209.69 38.27,-39.12 61.92,-92.57 61.92,-151.63 0,-59.06 -23.65,-112.52 -61.92,-151.64 -0.84,-1.44 -100.6,-102.4 -206.75,-209.68z"/>
     <path class="fil3" d="M4089.39 2281.87c-333.93,0 -604.63,-270.7 -604.63,-604.63 0,-0.46 0.03,-0.92 0.03,-1.38 0,-0.39 -0.03,-0.79 -0.03,-1.19 0.03,-5.53 0.3,-11.06 0.48,-16.58 1.65,-53.1 10.1,-104.47 24.6,-153.27 0.21,-0.71 0.38,-1.41 0.6,-2.11 2.26,-7.52 4.73,-14.95 7.27,-22.35 0.74,-2.17 1.44,-4.36 2.21,-6.52 2.1,-5.89 4.37,-11.71 6.65,-17.52 1.46,-3.72 2.87,-7.44 4.4,-11.14 1.74,-4.17 3.59,-8.28 5.42,-12.41 2.33,-5.29 4.66,-10.57 7.15,-15.8 1.14,-2.4 2.36,-4.74 3.53,-7.12 3.37,-6.84 6.81,-13.66 10.45,-20.4 0.32,-0.58 0.65,-1.14 0.97,-1.73 27.11,-49.81 61.56,-96.65 103.66,-138.74 130.81,-130.81 306.96,-189.16 478.34,-175.34l-1.18 1.17c72.07,5.89 140.54,24.39 203.24,53.34l136.91 -136.38c-300.71,-169.95 -690,-127.21 -945.86,128.65 -151.98,151.99 -228.72,351.09 -230.46,550.73l-0.17 0c0,1.17 0.08,2.34 0.08,3.51 0,1.17 -0.08,2.34 -0.08,3.51l0.17 0c1.74,199.64 78.47,398.74 230.46,550.73 255.86,255.86 645.16,298.61 945.86,128.65l-133.39 -132.85c-77.92,36.6 -164.88,57.15 -256.67,57.15z"/>
    </g>
    <path class="fil4" d="M1594.89 3188.28c56.62,0 108.37,-17.65 158.9,-53.58l-26.18 -47.49c-43.22,29.83 -84.63,45.05 -132.11,45.05 -90.71,0 -160.12,-62.71 -160.12,-164.38 0,-103.5 70.62,-163.77 158.9,-163.77 47.49,0 87.06,15.22 131.51,45.66l26.18 -47.49c-53.58,-36.53 -104.11,-52.97 -161.34,-52.97 -121.77,0 -217.96,84.63 -217.96,219.18 0,134.55 102.28,219.79 222.22,219.79z"/>
    <path id="_1" class="fil4" d="M2223.25 3181.58l-118.72 -155.86c73.06,-16.44 113.85,-62.1 113.85,-132.11 0,-88.28 -65.15,-138.21 -177.78,-138.21l-169.26 0 0 426.18 60.28 0 0 -149.77 101.07 0 113.85 149.77 76.71 0zm-183.87 -372.6c76.1,0 118.72,27.4 118.72,85.84 0,59.06 -42.62,83.41 -119.33,83.41l-107.15 0 0 -169.26 107.76 0z"/>
    <polygon id="_2" class="fil4" points="2405.34,2989.8 2643.4,2989.8 2643.4,2935.61 2405.34,2935.61 2405.34,2808.98 2673.23,2808.98 2673.23,2755.4 2346.29,2755.4 2346.29,3181.58 2679.32,3181.58 2679.32,3127.39 2405.34,3127.39 "/>
    <path id="_3" class="fil4" d="M2983.17 3181.58c141.25,0 231.96,-83.41 231.96,-213.7 0,-129.07 -90.71,-212.48 -231.96,-212.48l-172.91 0 0 426.18 172.91 0zm-112.63 -372.6l109.59 0c105.33,0 171.08,59.67 171.08,159.51 0,99.24 -65.75,158.9 -170.47,158.9l-110.2 0 0 -318.42z"/>
    <polygon id="_4" class="fil4" points="3413.66,3181.58 3413.66,2755.4 3353.39,2755.4 3353.39,3181.58 "/>
    <polygon id="_5" class="fil4" points="3528.18,2755.4 3528.18,2808.98 3675.51,2808.98 3675.51,3181.58 3736.39,3181.58 3736.39,2808.98 3883.73,2808.98 3883.73,2755.4 "/>
    <polygon id="_6" class="fil5" points="4196.72,2963.62 4352.58,2755.4 4281.34,2755.4 4159.58,2918.57 4037.2,2755.4 3965.97,2755.4 4121.83,2962.41 3957.45,3181.58 4028.68,3181.58 4159.58,3008.07 4289.87,3181.58 4360.49,3181.58 "/>
    <path id="_7" class="fil5" d="M4640.6 2755.4l-163.17 0 0 426.18 60.28 0 0 -135.77 101.67 0c110.81,0 179,-54.19 179,-146.12 0,-90.1 -66.97,-144.29 -177.78,-144.29zm-102.89 236.83l0 -183.26 101.67 0c74.89,0 118.72,30.44 118.72,90.71 0,62.1 -43.84,92.54 -119.33,92.54l-101.07 0z"/>
    <path id="_8" class="fil5" d="M5293.32 3181.58l-118.72 -155.86c73.06,-16.44 113.85,-62.1 113.85,-132.11 0,-88.28 -65.15,-138.21 -177.78,-138.21l-169.26 0 0 426.18 60.28 0 0 -149.77 101.07 0 113.85 149.77 76.71 0zm-183.87 -372.6c76.1,0 118.72,27.4 118.72,85.84 0,59.06 -42.62,83.41 -119.33,83.41l-107.15 0 0 -169.26 107.76 0z"/>
    <polygon id="_9" class="fil5" points="5475.41,2989.8 5713.46,2989.8 5713.46,2935.61 5475.41,2935.61 5475.41,2808.98 5743.29,2808.98 5743.29,2755.4 5416.35,2755.4 5416.35,3181.58 5749.38,3181.58 5749.38,3127.39 5475.41,3127.39 "/>
    <path id="_10" class="fil5" d="M6022.19 3187.67c92.54,0 175.95,-39.57 175.95,-122.37 0,-77.32 -60.28,-108.98 -163.77,-129.07 -75.49,-16.44 -108.98,-28.62 -108.98,-68.19 0,-49.92 45.66,-63.93 102.89,-63.93 43.84,0 85.84,10.35 133.34,32.88l10.96 -56.01c-45.66,-21.92 -94.37,-31.66 -144.29,-31.66 -90.11,0 -166.82,39.57 -166.82,121.16 0,69.4 54.79,99.85 157.08,119.33 73.67,15.22 115.07,26.79 115.07,77.32 0,52.36 -52.36,65.14 -112.02,65.14 -50.53,0 -117.5,-12.17 -166.21,-38.35l-6.08 55.4c43.84,25.57 106.54,38.36 172.9,38.36z"/>
    <path id="_11" class="fil5" d="M6465.46 3187.67c92.54,0 175.95,-39.57 175.95,-122.37 0,-77.32 -60.28,-108.98 -163.77,-129.07 -75.49,-16.44 -108.98,-28.62 -108.98,-68.19 0,-49.92 45.66,-63.93 102.89,-63.93 43.84,0 85.84,10.35 133.34,32.88l10.96 -56.01c-45.66,-21.92 -94.37,-31.66 -144.29,-31.66 -90.11,0 -166.82,39.57 -166.82,121.16 0,69.4 54.79,99.85 157.08,119.33 73.67,15.22 115.07,26.79 115.07,77.32 0,52.36 -52.36,65.14 -112.02,65.14 -50.53,0 -117.5,-12.17 -166.21,-38.35l-6.08 55.4c43.84,25.57 106.54,38.36 172.9,38.36z"/>
   </g>
  </g>
 </g>
</svg>
